<?xml version="1.0" standalone="no"?>
<!DOCTYPE svg PUBLIC "-//W3C//DTD SVG 20010904//EN"
 "http://www.w3.org/TR/2001/REC-SVG-20010904/DTD/svg10.dtd">
<svg version="1.0" xmlns="http://www.w3.org/2000/svg"
 width="850.000000pt" height="850.000000pt" viewBox="0 0 850.000000 850.000000"
 preserveAspectRatio="xMidYMid meet">
<metadata>
Created by potrace 1.11, written by Peter Selinger 2001-2013
</metadata>
<g transform="translate(0.000000,850.000000) scale(0.100000,-0.100000)"
fill="#000000" stroke="none">
<path d="M3285 7769 c-16 -5 -43 -12 -60 -15 -40 -7 -84 -29 -119 -59 -16 -14
-32 -25 -36 -25 -12 0 -90 -125 -90 -144 0 -16 -7 -18 -62 -12 -159 16 -239
18 -290 7 -180 -39 -251 -77 -324 -173 -39 -52 -49 -74 -68 -161 -21 -91 -21
-105 -9 -156 7 -31 15 -66 17 -79 12 -59 51 -127 106 -183 39 -38 126 -95 160
-104 28 -6 160 -37 176 -41 16 -3 25 -16 33 -51 30 -117 159 -239 289 -272
134 -34 120 -22 138 -115 5 -22 78 -122 109 -149 20 -17 20 -17 -10 -12 -111
18 -464 27 -515 13 -14 -3 -47 -11 -74 -18 -27 -6 -54 -14 -60 -18 -6 -4 -13
-7 -16 -7 -19 -1 -243 -97 -395 -170 -49 -24 -156 -75 -237 -114 -110 -52
-175 -76 -260 -96 -62 -15 -129 -31 -148 -36 -31 -7 -240 -53 -296 -63 -62
-12 -245 -59 -284 -72 -129 -46 -249 -130 -308 -218 -52 -76 -97 -230 -87
-299 25 -168 70 -248 194 -339 39 -29 46 -41 60 -98 11 -42 31 -85 58 -123
l42 -58 -94 -129 c-167 -230 -248 -359 -259 -415 -3 -11 -14 -59 -25 -106 -26
-112 -23 -194 15 -344 38 -149 61 -195 175 -345 80 -105 160 -175 352 -308
137 -95 189 -119 348 -161 181 -48 238 -51 934 -57 292 -2 551 -6 577 -8 111
-11 215 -29 248 -42 36 -15 171 -94 180 -105 3 -3 10 -8 15 -10 26 -10 125
-75 125 -81 0 -5 -17 -8 -37 -8 -21 0 -60 -7 -88 -15 -27 -9 -52 -16 -55 -16
-57 0 -171 -69 -216 -130 -16 -22 -37 -49 -46 -61 -10 -12 -19 -27 -19 -35 -1
-7 -2 -18 -3 -25 0 -6 -37 -22 -81 -36 -150 -46 -272 -159 -310 -289 -18 -60
-25 -160 -14 -203 23 -90 34 -116 72 -172 l42 -63 -17 -65 c-29 -109 3 -270
73 -364 43 -58 131 -123 179 -133 17 -3 31 -12 31 -19 1 -8 2 -17 3 -21 1 -9
47 -75 56 -83 4 -3 9 -12 13 -21 3 -10 34 -38 70 -63 50 -36 82 -50 151 -66
109 -25 120 -25 236 3 76 18 107 32 156 67 70 51 174 191 174 235 0 13 32 86
53 120 66 109 247 278 447 419 52 36 104 73 115 82 11 9 46 29 77 44 58 28
157 95 170 115 3 5 20 25 37 44 17 19 53 67 81 108 38 57 50 69 50 52 0 -13
16 -47 36 -76 l36 -53 -18 -27 c-31 -45 -45 -83 -64 -169 -20 -87 -19 -107 10
-227 37 -150 136 -247 292 -285 l88 -22 91 20 c88 19 141 47 216 113 14 12 28
17 40 13 10 -4 41 -12 68 -17 28 -6 61 -12 74 -15 13 -3 67 5 119 17 76 18
109 32 161 67 78 52 99 75 156 162 34 52 77 144 80 170 5 40 117 378 153 460
43 101 137 289 158 317 13 17 24 34 24 38 0 14 82 116 141 175 76 75 221 173
345 231 49 24 93 46 99 51 5 5 25 19 43 32 57 41 97 105 117 186 19 82 84 251
100 262 5 4 7 8 3 8 -4 0 9 37 30 83 48 108 294 594 342 677 44 75 72 125 110
195 15 28 37 66 49 85 11 19 24 42 28 50 4 8 24 44 44 80 71 127 121 226 135
270 36 109 66 240 69 295 3 61 -29 217 -55 266 -29 53 -93 128 -133 155 -23
16 -43 32 -45 37 -2 4 -10 7 -18 7 -8 0 -14 4 -14 8 0 5 -42 19 -92 31 -157
36 -175 38 -283 31 -38 -3 -203 -36 -272 -54 -29 -8 -53 -13 -54 -13 0 1 -2
33 -4 70 -2 37 -9 100 -15 138 -12 67 -11 71 9 85 56 39 132 134 173 213 27
51 61 188 60 241 0 62 -47 244 -74 289 -27 45 -75 108 -108 142 -46 46 -227
180 -272 199 -13 6 -48 24 -78 40 -30 17 -60 30 -66 30 -6 0 -17 6 -23 14 -7
8 -22 17 -34 20 -13 3 -45 15 -73 28 -27 12 -51 22 -54 23 -3 0 -25 6 -50 12
-159 42 -497 114 -695 148 -49 8 -101 17 -115 20 -14 3 -38 8 -55 10 -128 22
-334 64 -514 106 -209 48 -761 187 -831 209 -19 6 -42 13 -50 15 -162 45 -426
165 -670 304 -30 18 -63 34 -72 37 -10 4 -18 10 -18 15 0 5 -5 9 -10 9 -6 0
-41 20 -78 45 -50 34 -91 51 -151 65 -89 22 -120 23 -166 9z"/>
</g>
</svg>
